<svg id="Layer_3" data-name="Layer 3" xmlns="http://www.w3.org/2000/svg" viewBox="0 0 709.34 521.35"><defs><style>.cls-1{stroke:#fff;stroke-miterlimit:10;stroke-width:0.75px;}</style></defs><path class="cls-1" d="M510.17,526.88a14.59,14.59,0,1,1-6-12v-8.61a3,3,0,0,1,5.1-2.11,2.89,2.89,0,0,1,.88,2.11Zm-5.95.47a4.58,4.58,0,0,1,0-.53v-1.11a8.71,8.71,0,1,0-2.49,7.18A8.19,8.19,0,0,0,504.22,527.35Z" transform="translate(-242.49 -90)"/><path class="cls-1" d="M545.4,538.49a2.56,2.56,0,0,1-.88,2.28,4.07,4.07,0,0,1-4.22,0,2.46,2.46,0,0,1-.88-2.22,14.65,14.65,0,1,1,6-12Zm-8.47-17.91a8.66,8.66,0,1,0,2.49,7.18v-1.11c0-.18,0-.35,0-.53A8.16,8.16,0,0,0,536.93,520.58Z" transform="translate(-242.49 -90)"/><path class="cls-1" d="M565.27,539.46a2.58,2.58,0,0,1-.68,1,2.86,2.86,0,0,1-4.13,0,2.49,2.49,0,0,1-.67-1l-11.41-22.83a2.81,2.81,0,0,1-.52-1.68,2.78,2.78,0,0,1,.86-2.06,2.83,2.83,0,0,1,2.07-.87,2.86,2.86,0,0,1,2.08.85,3.27,3.27,0,0,1,.47.62h0l9.14,18.32,9.15-18.32,0,0a3.51,3.51,0,0,1,.5-.65,2.93,2.93,0,0,1,5,2.08,2.71,2.71,0,0,1-.56,1.7Z" transform="translate(-242.49 -90)"/><path class="cls-1" d="M586.08,509.18a3,3,0,1,1,2.11-.88A2.88,2.88,0,0,1,586.08,509.18Zm0,32.18a3,3,0,0,1-3-3V514.92a3,3,0,1,1,6,0v23.45a3,3,0,0,1-3,3Z" transform="translate(-242.49 -90)"/><path class="cls-1" d="M624.09,526.88a14.59,14.59,0,1,1-6-12v-8.61a3,3,0,0,1,6,0Zm-6,.47a4.58,4.58,0,0,1,0-.53v-1.11a8.71,8.71,0,1,0-2.49,7.18A8.19,8.19,0,0,0,618.14,527.35Z" transform="translate(-242.49 -90)"/><path class="cls-1" d="M652.66,504.32a2.84,2.84,0,0,1,.88,2.11v31.94a3,3,0,0,1-5.1,2.11,2.89,2.89,0,0,1-.88-2.11V506.43a3,3,0,0,1,5.1-2.11Z" transform="translate(-242.49 -90)"/><path class="cls-1" d="M662.3,509.18a3,3,0,0,1-3-3,2.9,2.9,0,0,1,.87-2.11,2.87,2.87,0,0,1,2.11-.88,2.84,2.84,0,0,1,2.11.88,2.95,2.95,0,0,1,0,4.22A2.84,2.84,0,0,1,662.3,509.18Zm0,32.18a3,3,0,0,1-3-3V514.92a3,3,0,0,1,3-3,3,3,0,0,1,3,3v23.45a3,3,0,0,1-3,3Z" transform="translate(-242.49 -90)"/><path class="cls-1" d="M686,512.05a15.08,15.08,0,0,1,10.17,4.34,14.11,14.11,0,0,1,4.28,10.2V537.9a3.5,3.5,0,0,1-.88,2.58,3,3,0,0,1-4.22,0,3.38,3.38,0,0,1-.88-2.52V526.65a4.71,4.71,0,0,1,0-.53,8.18,8.18,0,0,0-2.53-5.54,8.37,8.37,0,0,0-6.15-2.55h-.11a8.39,8.39,0,0,0-6.16,2.55,8.21,8.21,0,0,0-2.52,5.54,4.71,4.71,0,0,1,0,.53V538a3.42,3.42,0,0,1-.88,2.52,3,3,0,0,1-4.22,0,3.46,3.46,0,0,1-.88-2.58V526.59a14.07,14.07,0,0,1,4.28-10.2,15,15,0,0,1,10.17-4.34Z" transform="translate(-242.49 -90)"/><path class="cls-1" d="M728.66,495.23a2.91,2.91,0,0,1,.88,2.11v46.6a2.91,2.91,0,0,1-.88,2.11,3,3,0,0,1-5.1-2.11v-46.6a3,3,0,0,1,5.1-2.11Z" transform="translate(-242.49 -90)"/><path class="cls-1" d="M782.3,526.88a14.59,14.59,0,1,1-6-12v-8.61a3,3,0,0,1,3-3,3,3,0,0,1,3,3Zm-6,.47a4.61,4.61,0,0,1,0-.53v-1.11a8.72,8.72,0,1,0-2.5,7.18A8.15,8.15,0,0,0,776.34,527.35Z" transform="translate(-242.49 -90)"/><path class="cls-1" d="M791.26,509.18a3,3,0,1,1,2.11-.88A2.87,2.87,0,0,1,791.26,509.18Zm0,32.18a3,3,0,0,1-3-3V514.92a2.87,2.87,0,0,1,.88-2.11,3,3,0,0,1,4.22,0,2.87,2.87,0,0,1,.88,2.11v23.45a3,3,0,0,1-3,3Z" transform="translate(-242.49 -90)"/><path class="cls-1" d="M814.68,512.05a2.91,2.91,0,0,1,2.11.88,3,3,0,0,1-2.11,5.1h0a8.42,8.42,0,0,0-6.16,2.55,8.16,8.16,0,0,0-2.51,5.54,4.7,4.7,0,0,1,0,.53V538a3.41,3.41,0,0,1-.87,2.52,3,3,0,0,1-4.23,0,3.5,3.5,0,0,1-.87-2.58V526.59a14.1,14.1,0,0,1,4.27-10.2A15.12,15.12,0,0,1,814.68,512.05Z" transform="translate(-242.49 -90)"/><path class="cls-1" d="M837,518.77a8.7,8.7,0,1,0,2.58,14.12l.06-.06a3,3,0,0,1,4.19,0,2.8,2.8,0,0,1,.88,2.09,2.85,2.85,0,0,1-.88,2.11l-.06.06a14.63,14.63,0,1,1,0-20.75l0,0s0,0,0,0a2.82,2.82,0,0,1,.85,2.08,2.77,2.77,0,0,1-.85,2l-8.38,8.33a3,3,0,0,1-2.11.85,3,3,0,0,1-2.14-.85,3,3,0,0,1-.85-2.14,2.91,2.91,0,0,1,.85-2.11Z" transform="translate(-242.49 -90)"/><path class="cls-1" d="M873.59,516.39a0,0,0,0,0,0,0,2.86,2.86,0,0,1,.85,2.08,3,3,0,0,1-2.93,2.93,2.76,2.76,0,0,1-2.08-.88h0a8.69,8.69,0,1,0,0,12.34l.06-.06a2.83,2.83,0,0,1,2.08-.85,2.9,2.9,0,0,1,2.11.87,2.83,2.83,0,0,1,.88,2.09,2.89,2.89,0,0,1-.88,2.11l-.06.06a14.63,14.63,0,1,1,0-20.75Z" transform="translate(-242.49 -90)"/><path class="cls-1" d="M885.23,512v-5.56a3,3,0,0,1,6,0V512h3.25a3,3,0,0,1,2.11,5.1,2.87,2.87,0,0,1-2.11.88h-3.25v20.4a3,3,0,1,1-6,0V518h-3.38a3,3,0,0,1-3-3,3,3,0,0,1,3-3Z" transform="translate(-242.49 -90)"/><path class="cls-1" d="M923.56,516.39a14.64,14.64,0,1,1-10.35-4.28A14.1,14.1,0,0,1,923.56,516.39ZM913.21,518a8.41,8.41,0,0,0-6.15,2.54,8.69,8.69,0,1,0,12.29,12.29A8.69,8.69,0,0,0,913.21,518Z" transform="translate(-242.49 -90)"/><path class="cls-1" d="M948.47,512.05a2.91,2.91,0,0,1,2.11.88,3,3,0,0,1-2.11,5.1h0a8.38,8.38,0,0,0-6.15,2.55,8.12,8.12,0,0,0-2.52,5.54,4.71,4.71,0,0,1,0,.53V538a3.38,3.38,0,0,1-.88,2.52,3,3,0,0,1-4.22,0,3.46,3.46,0,0,1-.88-2.58V526.59a14.07,14.07,0,0,1,4.28-10.2A15.07,15.07,0,0,1,948.47,512.05Z" transform="translate(-242.49 -90)"/><path d="M951.25,462.23c-.68.06-1.36.18-2,.18h-44c-.68,0-1.37-.06-2.23-.1-.08-.7-.17-1.35-.21-2s0-1.2,0-1.81V93.85c0-1.28,0-2.57.08-3.85h48.43Z" transform="translate(-242.49 -90)"/><path d="M629.8,245.15l-26.91,36c-20.2-14.2-42.18-18.65-66-12.09-17.65,4.86-31.6,15.11-42,30.16-20.3,29.46-16.63,70,8.33,95.37C529.43,421.15,572,425.68,604,401.47l27.67,35.47a121.22,121.22,0,0,1-120.56,16.23c-20-8.3-36.51-21.22-50-38.53L368.67,611.35l-42.5-19.94,62.27-132.53c-35.87,6.53-68.49-.13-97.58-21.69a117.4,117.4,0,0,1-41.56-56.63c-15.78-44.9-2.87-92.4,25.88-122.2L307.94,289c-.59.72-1.07,1.31-1.56,1.89-13.71,15.93-20,34.43-18.57,55.35,2.26,34,27.9,62.58,61.31,68.75a75.69,75.69,0,0,0,87.71-56.41,17.34,17.34,0,0,0,.4-5.57c-2.87-36.38,8-68.1,33-94.66,18.7-19.83,41.87-31.77,68.8-35.8,32.06-4.79,61.54,2.24,88.2,20.77C628.1,243.84,628.9,244.48,629.8,245.15Z" transform="translate(-242.49 -90)"/><path d="M818.05,242.52V90.86c2-.57,42.56-.77,46.68-.28.64,2.35.94,197.22.34,222.37-14.35,3.53-28.85,6.82-43.5,10.32-6.48-23.81-20.51-41.33-43-51.58a73,73,0,0,0-50.79-3.91A75.72,75.72,0,0,0,746.21,416.5c.46,1.57-.07,42.05-.58,44.57-32.12.72-81.35-16.73-106.29-67.26a120.72,120.72,0,0,1,57.39-162.49,118.42,118.42,0,0,1,40.81-10.85,121.3,121.3,0,0,1,41.84,3.76A123.11,123.11,0,0,1,818.05,242.52Z" transform="translate(-242.49 -90)"/></svg>